REM DIRINDEX 1\2,1\3,1\4,1\6,1\5\7,1\5\8
REM DIRNAME cjc114,folder01,folder02,folder03,folder04,folder05,folder06,folder07
TITLE ""
FILE "DB4500_5th_5C_08.mp3" MP3
  TRACK 01 AUDIO
    TITLE "0:"
    INDEX 01 00:00:00
  TRACK 02 AUDIO
    TITLE "2:cjc114_3474"
    INDEX 01 00:00:03
  TRACK 03 AUDIO
    TITLE "0:"
    INDEX 01 00:01:21
  TRACK 04 AUDIO
    TITLE "3:cjc114_3475"
    INDEX 01 00:01:44
  TRACK 05 AUDIO
    TITLE "0:"
    INDEX 01 00:03:06
  TRACK 06 AUDIO
    TITLE "4:cjc114_3476"
    INDEX 01 00:03:27
  TRACK 07 AUDIO
    TITLE "0:"
    INDEX 01 00:06:35
  TRACK 08 AUDIO
    TITLE "2:cjc114_3477"
    INDEX 01 00:07:09
  TRACK 09 AUDIO
    TITLE "0:"
    INDEX 01 00:08:26
  TRACK 10 AUDIO
    TITLE "3:cjc114_3478"
    INDEX 01 00:08:48
  TRACK 11 AUDIO
    TITLE "0:"
    INDEX 01 00:10:72
  TRACK 12 AUDIO
    TITLE "4:cjc114_3479"
    INDEX 01 00:11:21
  TRACK 13 AUDIO
    TITLE "0:"
    INDEX 01 00:13:69
  TRACK 14 AUDIO
    TITLE "2:cjc114_3480"
    INDEX 01 00:14:43
  TRACK 15 AUDIO
    TITLE "0:"
    INDEX 01 00:15:52
  TRACK 16 AUDIO
    TITLE "3:cjc114_3481"
    INDEX 01 00:16:00
  TRACK 17 AUDIO
    TITLE "0:"
    INDEX 01 00:17:27
  TRACK 18 AUDIO
    TITLE "4:cjc114_3482"
    INDEX 01 00:17:49
  TRACK 19 AUDIO
    TITLE "0:"
    INDEX 01 00:20:61
  TRACK 20 AUDIO
    TITLE "2:cjc114_3483"
    INDEX 01 00:21:35
  TRACK 21 AUDIO
    TITLE "0:"
    INDEX 01 00:22:44
  TRACK 22 AUDIO
    TITLE "3:cjc114_3484"
    INDEX 01 00:22:66
  TRACK 23 AUDIO
    TITLE "0:"
    INDEX 01 00:24:24
  TRACK 24 AUDIO
    TITLE "4:cjc114_3485"
    INDEX 01 00:24:47
  TRACK 25 AUDIO
    TITLE "0:"
    INDEX 01 00:28:41
  TRACK 26 AUDIO
    TITLE "2:cjc114_3486"
    INDEX 01 00:29:13
  TRACK 27 AUDIO
    TITLE "0:"
    INDEX 01 00:30:22
  TRACK 28 AUDIO
    TITLE "3:cjc114_3487"
    INDEX 01 00:30:46
  TRACK 29 AUDIO
    TITLE "0:"
    INDEX 01 00:32:03
  TRACK 30 AUDIO
    TITLE "4:cjc114_3488"
    INDEX 01 00:32:27
  TRACK 31 AUDIO
    TITLE "0:"
    INDEX 01 00:35:06
  TRACK 32 AUDIO
    TITLE "2:cjc114_3489"
    INDEX 01 00:35:51
  TRACK 33 AUDIO
    TITLE "0:"
    INDEX 01 00:36:66
  TRACK 34 AUDIO
    TITLE "3:cjc114_3490"
    INDEX 01 00:37:14
  TRACK 35 AUDIO
    TITLE "0:"
    INDEX 01 00:39:05
  TRACK 36 AUDIO
    TITLE "4:cjc114_3491"
    INDEX 01 00:39:25
  TRACK 37 AUDIO
    TITLE "0:"
    INDEX 01 00:42:55
  TRACK 38 AUDIO
    TITLE "2:cjc114_3492"
    INDEX 01 00:43:29
  TRACK 39 AUDIO
    TITLE "0:"
    INDEX 01 00:44:30
  TRACK 40 AUDIO
    TITLE "3:cjc114_3493"
    INDEX 01 00:44:54
  TRACK 41 AUDIO
    TITLE "0:"
    INDEX 01 00:46:06
  TRACK 42 AUDIO
    TITLE "4:cjc114_3494"
    INDEX 01 00:46:27
  TRACK 43 AUDIO
    TITLE "0:"
    INDEX 01 00:49:43
  TRACK 44 AUDIO
    TITLE "2:cjc114_3495"
    INDEX 01 00:50:13
  TRACK 45 AUDIO
    TITLE "0:"
    INDEX 01 00:51:32
  TRACK 46 AUDIO
    TITLE "3:cjc114_3496"
    INDEX 01 00:51:56
  TRACK 47 AUDIO
    TITLE "0:"
    INDEX 01 00:53:13
  TRACK 48 AUDIO
    TITLE "4:cjc114_3497"
    INDEX 01 00:53:35
  TRACK 49 AUDIO
    TITLE "0:"
    INDEX 01 00:56:41
  TRACK 50 AUDIO
    TITLE "2:cjc114_3498"
    INDEX 01 00:57:13
  TRACK 51 AUDIO
    TITLE "0:"
    INDEX 01 00:58:30
  TRACK 52 AUDIO
    TITLE "3:cjc114_3499"
    INDEX 01 00:58:44
  TRACK 53 AUDIO
    TITLE "0:"
    INDEX 01 00:59:67
  TRACK 54 AUDIO
    TITLE "4:cjc114_3500"
    INDEX 01 01:00:08
  TRACK 55 AUDIO
    TITLE "0:"
    INDEX 01 01:03:20
  TRACK 56 AUDIO
    TITLE "2:cjc114_3501"
    INDEX 01 01:03:61
  TRACK 57 AUDIO
    TITLE "0:"
    INDEX 01 01:05:03
  TRACK 58 AUDIO
    TITLE "3:cjc114_3502"
    INDEX 01 01:05:21
  TRACK 59 AUDIO
    TITLE "0:"
    INDEX 01 01:06:42
  TRACK 60 AUDIO
    TITLE "4:cjc114_3503"
    INDEX 01 01:06:57
  TRACK 61 AUDIO
    TITLE "0:"
    INDEX 01 01:10:26
  TRACK 62 AUDIO
    TITLE "2:cjc114_3504"
    INDEX 01 01:10:63
  TRACK 63 AUDIO
    TITLE "0:"
    INDEX 01 01:12:07
  TRACK 64 AUDIO
    TITLE "3:cjc114_3505"
    INDEX 01 01:12:19
  TRACK 65 AUDIO
    TITLE "0:"
    INDEX 01 01:13:47
  TRACK 66 AUDIO
    TITLE "4:cjc114_3506"
    INDEX 01 01:13:63
  TRACK 67 AUDIO
    TITLE "0:"
    INDEX 01 01:17:49
  TRACK 68 AUDIO
    TITLE "2:cjc114_3507"
    INDEX 01 01:18:11
  TRACK 69 AUDIO
    TITLE "0:"
    INDEX 01 01:19:42
  TRACK 70 AUDIO
    TITLE "3:cjc114_3508"
    INDEX 01 01:19:56
  TRACK 71 AUDIO
    TITLE "0:"
    INDEX 01 01:20:61
  TRACK 72 AUDIO
    TITLE "4:cjc114_3509"
    INDEX 01 01:21:00
  TRACK 73 AUDIO
    TITLE "0:"
    INDEX 01 01:25:53
  TRACK 74 AUDIO
    TITLE "2:cjc114_3510"
    INDEX 01 01:26:15
  TRACK 75 AUDIO
    TITLE "0:"
    INDEX 01 01:27:40
  TRACK 76 AUDIO
    TITLE "3:cjc114_3511"
    INDEX 01 01:27:55
  TRACK 77 AUDIO
    TITLE "0:"
    INDEX 01 01:28:71
  TRACK 78 AUDIO
    TITLE "4:cjc114_3512"
    INDEX 01 01:29:09
  TRACK 79 AUDIO
    TITLE "0:"
    INDEX 01 01:32:66
